# xmcd
#
# Track frame offsets: 
#        150
#        14560
#        29597
#        45386
#        68935
#        83059
#        100840
#        116964
#        131332
#        147281
#        162227
#        177515
#        197149
#
# Disc length: 2814 seconds
#
# Revision: 0
# Processed by: cddbd v1.5.2PL0 Copyright (c) Steve Scherf et al.
# Submitted via: ExactAudioCopy v1.1
#
DISCID=b70afc0d
DTITLE=Mick Clarke - Ramdango
DYEAR=2014
DGENRE=Electric Blues
TTITLE0=Baked Potatoes
TTITLE1=Helping Hand
TTITLE2=Mojo Go
TTITLE3=Who's Educating Who
TTITLE4=Curry Night
TTITLE5=Ramdango
TTITLE6=Behave Christine Behave
TTITLE7=Collapso
TTITLE8=False Information
TTITLE9=The Snarl
TTITLE10=15 Ton
TTITLE11=Talk
TTITLE12=What If
EXTD=
EXTT0=
EXTT1=
EXTT2=
EXTT3=
EXTT4=
EXTT5=
EXTT6=
EXTT7=
EXTT8=
EXTT9=
EXTT10=
EXTT11=
EXTT12=
PLAYORDER=
